. 
  
http://www.torrenting.com/        :     Greatest Movie Tracker on The Net!!!
 
http://www.Torrenting.com          :     Once & For all ;)


               www . Torrenting . Com 

(((((((((((((= Enjoy No RAR releases =))))))))))))))))))))


...................................NFO:....................................

.[img]http://img6.imageshack.us/img6/1701/withoutmenposter01.jpg[/img]

[color=blue][size=5][b]Without.Men.2011.DVDRip.XVID.AC3.HQ.Hive-CM8[/b][/size][/color]


[b]Thx Hive


CM8 Doing It Right The First Time :D


Source: DVD-R

Encode:

DVD had nice quality, added sharpness,brightness,rgb and denoise
enjoy

Video: 720x384 @bitrate 1800 2pass
Audio: English AC3 5.1 @448
Sample: yes included[/b]


[url]http://www.imdb.com/title/tt1547090/[/url]


General
Complete name                    : Without.Men.2011.DVDRip.XVID.AC3.HQ.Hive-CM8.avi
Format                           : AVI
Format/Info                      : Audio Video Interleave
File size                        : 1.37 GiB
Duration                         : 1h 26mn
Overall bit rate                 : 2 257 Kbps
Writing application              : Nandub v1.0rc2
Writing library                  : Nandub build 1853/release

Video
ID                               : 0
Format                           : MPEG-4 Visual
Format profile                   : Advanced Simple@L5
Format settings, BVOP            : 2
Format settings, QPel            : Yes
Format settings, GMC             : No warppoints
Format settings, Matrix          : Default (H.263)
Muxing mode                      : Packed bitstream
Codec ID                         : XVID
Codec ID/Hint                    : XviD
Duration                         : 1h 26mn
Bit rate                         : 1 800 Kbps
Width                            : 720 pixels
Height                           : 400 pixels
Display aspect ratio             : 16:9
Frame rate                       : 23.976 fps
Color space                      : YUV
Chroma subsampling               : 4:2:0
Bit depth                        : 8 bits
Scan type                        : Progressive
Compression mode                 : Lossy
Bits/(Pixel*Frame)               : 0.261
Stream size                      : 1.09 GiB (80%)
Writing library                  : XviD 1.2.1 (UTC 2008-12-04)

Audio
ID                               : 1
Format                           : AC-3
Format/Info                      : Audio Coding 3
Mode extension                   : CM (complete main)
Codec ID                         : 2000
Duration                         : 1h 26mn
Bit rate mode                    : Constant
Bit rate                         : 448 Kbps
Channel(s)                       : 6 channels
Channel positions                : Front: L C R, Side: L R, LFE
Sampling rate                    : 48.0 KHz
Bit depth                        : 16 bits
Compression mode                 : Lossy
Stream size                      : 278 MiB (20%)
Alignment                        : Split accross interleaves
Interleave, duration             : 42 ms (1.00 video frame)
Interleave, preload duration     : 500 ms


The women of a remote Latin American town are forced to pick up the pieces and remake 
their world when all the town's men are forcibly recruited by communist guerrillas. 


Eva Longoria	... 	Rosalba
Christian Slater	... 	Gordon
Oscar Nuez	... 	Priest Rafael
Kate del Castillo	... 	Cleotilde
Monica Huarte	... 	Cecilia


[img]http://img511.imageshack.us/img511/8387/29821828.png[/img]
[img]http://img191.imageshack.us/img191/4179/wiwiq.png[/img]
[img]http://img546.imageshack.us/img546/5346/wiwiwi.png[/img]
[img]http://img27.imageshack.us/img27/7789/wiwiwiwi.png[/img]
[img]http://img585.imageshack.us/img585/8272/wiwiwiwiwi.png[/img]
[img]http://img403.imageshack.us/img403/4211/wiwiwiwiwiwi.png[/img]
[img]http://img191.imageshack.us/img191/4166/wiwiwiwiwwiiwi.png[/img]
[img]http://img690.imageshack.us/img690/5632/wiwiwiwwiiwwiiwi.png[/img]




Greetz

ViSiON,SiC,SANTi,3LT0N,YanKeeS,MAGNET,THC,T0XiC,LKRG,FANTASIA-PLAY,FANTASIA-M,BHRG,
D2U,WBZ,FLAWL3SS,NOVA,Vik,Rapeseed,SAFC,goldadvance,MEMORY100,scumbag,KaN1vE,Unevano,Pinnz,
Mr Hive,Wayne,cedrict wink,and all P2P groups


LOOKING FOR ANYTHING YOU WANT TO LOOK AND SOUND BETTER



CM8@hushmail.com